<svg xmlns="http://www.w3.org/2000/svg" xmlns:xlink="http://www.w3.org/1999/xlink" viewBox="0 0 192 21"><defs><style>.c{fill:#152f66;}.c,.d,.e{stroke-width:0px;}.d{fill:none;}.e{fill:#0a3;}.f{clip-path:url(#b);}</style><clipPath><rect class="d" y=".5" width="192" height="20"/></clipPath></defs><g class="f"><path class="e" d="M0,10.64C0,3.41,3.12.5,7.74.5c3.48,0,5.28,1.47,6.58,4.52l-3.43,1.77c-.41-1.66-1.05-2.8-3.15-2.8s-3.54,1.33-3.54,3.99v5.04c0,2.66,1.35,3.99,3.54,3.99s2.87-1.33,3.37-2.99l3.26,1.88c-1.33,2.91-3.15,4.6-6.63,4.6-4.62,0-7.74-2.63-7.74-9.86Z"/><path class="e" d="M22,20.17h-3.95V.83h8.35c3.45,0,5.31,2.35,5.31,6.01,0,2.83-1.11,4.88-3.18,5.65l3.37,7.67h-4.28l-2.98-7.31h-2.63v7.31h0ZM25.9,9.56c1.05,0,1.71-.47,1.71-1.8v-1.66c0-1.33-.66-1.8-1.71-1.8h-3.9v5.26h3.9Z"/><path class="e" d="M36.01,20.17V.83h11.94v3.46h-7.99v4.38h6.77v3.43h-6.77v4.6h7.99v3.46h-11.94Z"/><path class="e" d="M52.29.83h6.77c4.7,0,7.55,2.74,7.55,9.67s-2.85,9.67-7.55,9.67h-6.77V.83ZM59.06,16.7c2.18,0,3.34-1.25,3.34-3.88v-4.65c0-2.63-1.16-3.88-3.34-3.88h-2.82v12.41h2.82Z"/><path class="e" d="M70.17,20.17v-3.13h2.27V3.96h-2.27V.83h8.48v3.13h-2.27v13.07h2.27v3.13h-8.48Z"/><path class="e" d="M90.26,4.3v15.87h-3.95V4.3h-4.62V.83h13.18v3.46h-4.62Z"/><path class="c" d="M98.56,20.17V.83h11.94v3.46h-7.99v4.38h6.77v3.43h-6.77v4.6h7.99v3.46h-11.94Z"/><path class="c" d="M118.79,20.17h-3.95V.83h8.35c3.46,0,5.31,2.35,5.31,6.01,0,2.83-1.11,4.88-3.18,5.65l3.37,7.67h-4.28l-2.99-7.31h-2.62v7.31h0ZM122.68,9.56c1.05,0,1.71-.47,1.71-1.8v-1.66c0-1.33-.66-1.8-1.71-1.8h-3.9v5.26h3.9Z"/><path class="c" d="M143.55,20.17l-1.19-4.74h-5.91l-1.19,4.74h-3.79l5.47-19.34h5.03l5.47,19.34h-3.9ZM140.21,7.79l-.61-3.35h-.44l-.61,3.35-1.13,4.46h3.98l-1.19-4.46Z"/><path class="c" d="M150.76,18.45v-.72c0-1.22.72-1.99,2.27-1.99s2.27.78,2.27,1.99v.72c0,1.22-.72,1.99-2.27,1.99s-2.27-.78-2.27-1.99Z"/><path class="c" d="M159.94.83h8.57c3.07,0,4.56,1.97,4.56,4.96,0,3.27-1.66,4.04-3.26,4.16v.44c1.8,0,3.95,1.14,3.95,4.27s-1.69,5.51-4.48,5.51h-9.34V.83ZM163.89,8.78h3.65c.91,0,1.47-.47,1.47-1.66v-1.27c0-1.19-.55-1.66-1.47-1.66h-3.65v4.6ZM163.89,16.82h4.28c.88,0,1.47-.47,1.47-1.69v-1.39c0-1.22-.58-1.69-1.47-1.69h-4.28v4.76Z"/><path class="c" d="M188.68,17.12h-.44c-.25,1.97-1.8,3.38-4.34,3.38-3.65,0-6.88-2.6-6.88-9.92s3.04-10.08,7.66-10.08c3.43,0,5.72,1.52,6.99,4.46l-3.23,1.86c-.53-1.72-1.69-2.83-3.79-2.83s-3.43,1.36-3.43,3.99v5.04c0,2.63,1.35,3.96,3.54,3.96,1.99,0,3.45-1.02,3.45-3.02v-1.14h-3.18v-3.32h6.96v10.66h-3.32v-3.05Z"/></g></svg>